<svg width="72mm" height="10mm" viewBox="0 0 72 10" version="1.1" fill="#123F68" xmlns="http://www.w3.org/2000/svg">
  <g
      transform="scale(0.97323947,1.0274963)"
  >
    <path
        d="M 5.3334236e-7,9.5933294 2.4748058,-1.6860962e-5 H 5.7421049 L 8.2169102,9.5933294 H 6.3260477 L 4.2683445,1.5154538 H 3.837339 L 1.7935392,9.5933294 Z M 1.6684086,7.3687854 1.7240222,6.0896725 h 4.6020255 l 0.069517,1.2791129 z M 1.1817896,1.3347096 V -1.6860962e-5 H 3.628788 V 1.3347096 Z"
    />
    <path
        d="M 9.4542866,9.5933294 V 3.4619298 H 8.5505656 V 2.1689136 H 11.220018 V 9.5933294 Z M 9.3430594,1.5015504 V -1.6860962e-5 H 11.275632 V 1.5015504 Z"
    />
    <path
        d="M 13.249906,9.5933294 V 3.4619298 H 12.415702 V 2.1689136 h 2.349675 v 1.4320502 h 0.431005 q 0.222455,-0.7785904 0.681267,-1.1539822 0.458812,-0.3753918 1.223499,-0.3753918 h 0.875914 v 1.39034 h -1.612794 q -0.69517,0 -1.028852,0.3892953 -0.319778,0.3892952 -0.319778,1.2234992 v 4.5186051 z"
    />
    <path
        d="M 19.381294,9.5933294 V -1.6860962e-5 H 22.63469 L 24.317001,6.3121269 h 0.431006 L 26.430318,-1.6860962e-5 h 3.253396 V 9.5933294 H 27.876272 V 1.5154538 h -0.431006 l -2.12722,8.0778756 h -1.626698 l -2.12722,-8.0778756 h -0.431005 v 8.0778756 z"
    />
    <path
        d="m 33.479325,9.7323634 q -1.070562,0 -1.682311,-0.556136 -0.597846,-0.556136 -0.597846,-1.5571808 0,-1.0010449 0.653459,-1.5710843 0.65346,-0.5700394 1.932573,-0.7090734 l 1.932573,-0.1946476 v 1.1400788 l -1.404244,0.139034 q -0.69517,0.055614 -1.001045,0.2919714 -0.305874,0.2224544 -0.305874,0.6534599 v 0.139034 q 0,0.4310054 0.319778,0.6534598 0.333681,0.2224544 0.931528,0.2224544 0.722976,0 1.084465,-0.3058748 Q 35.717773,7.771984 35.717773,7.146331 V 6.1035759 5.8811215 4.8383665 q 0,-0.7507836 -0.319779,-1.0844652 -0.305874,-0.3336817 -0.959334,-0.3336817 -0.472716,0 -0.764687,0.1529374 -0.278068,0.1390341 -0.417102,0.3614885 -0.125131,0.2224544 -0.125131,0.486619 v 0.1112272 h -1.779635 q 0.194648,-1.2652095 0.973238,-1.8769591 0.792494,-0.625653 2.141124,-0.625653 1.487663,0 2.25235,0.7090734 0.764688,0.7090734 0.764688,2.0716067 v 3.4897535 h 0.8203 v 1.2930162 h -1.237403 q -1.112272,0 -1.112272,-1.112272 V 8.2168928 h -0.403198 q -0.222455,0.7785904 -0.722977,1.1539822 -0.486619,0.3614884 -1.34863,0.3614884 z"
    />
    <path
        d="m 42.405302,9.7323634 q -1.098369,0 -1.876959,-0.4449088 Q 39.763656,8.8425458 39.346554,7.980535 38.943355,7.1185242 38.943355,5.8811215 q 0,-1.251306 0.403199,-2.0994134 0.417102,-0.8620109 1.181789,-1.3069197 0.77859,-0.4449088 1.876959,-0.4449088 1.376436,0 2.224544,0.69517 0.848107,0.6812666 1.056658,2.0020897 H 43.906869 V 4.5742019 q 0,-0.2502612 -0.152937,-0.5144258 -0.152938,-0.278068 -0.48662,-0.4588123 -0.319778,-0.1807442 -0.86201,-0.1807442 -0.806398,0 -1.209596,0.4727157 -0.389295,0.4727156 -0.389295,1.4876638 v 1.0010448 q 0,1.0149483 0.389295,1.4876639 0.403198,0.4727156 1.209596,0.4727156 0.542232,0 0.86201,-0.1807442 0.333682,-0.1946476 0.48662,-0.486619 0.152937,-0.2919714 0.152937,-0.5700394 V 6.9238765 h 1.793539 Q 45.519663,8.3003132 44.657653,9.02329 43.809545,9.7323634 42.405302,9.7323634 Z"
    />
    <path
        d="m 47.14634,9.5933294 v -8.30033 h -0.8203 V -1.6860962e-5 h 2.586032 V 1.7101014 q 0,0.3197782 -0.04171,0.7090734 -0.02781,0.3892952 -0.09732,1.042755 h 0.417102 q 0.208551,-0.7507836 0.667363,-1.0844652 0.458813,-0.347585 1.237403,-0.347585 1.112272,0 1.682312,0.6812666 0.583942,0.6673632 0.583942,1.9881863 v 3.6009807 h 0.834204 V 9.5933294 H 51.623235 V 5.0330141 q 0,-0.8481074 -0.333681,-1.2234992 -0.333682,-0.3892953 -1.028852,-0.3892953 -0.69517,0 -1.028852,0.3892953 -0.319778,0.3753918 -0.319778,1.2234992 v 4.5603153 z"
    />
    <path
        d="M 55.516168,9.5933294 V 3.4619298 H 54.612447 V 2.1689136 H 57.2819 V 9.5933294 Z M 55.40494,1.5015504 V -1.6860962e-5 h 1.932573 V 1.5015504 Z"
    />
    <path
        d="M 59.311786,9.5933294 V 3.4619298 H 58.477582 V 2.1689136 h 2.349675 v 1.4181468 h 0.431006 q 0.222454,-0.7924938 0.709073,-1.1678856 0.486619,-0.3892952 1.279113,-0.3892952 1.126175,0 1.696215,0.6812666 0.583942,0.6673632 0.583942,1.9881863 v 3.6009807 h 0.848108 V 9.5933294 H 63.774778 V 5.0330141 q 0,-0.8481074 -0.333682,-1.2234992 -0.319778,-0.3892953 -1.014948,-0.3892953 -0.69517,0 -1.028851,0.3892953 -0.319779,0.3753918 -0.319779,1.2234992 v 4.5603153 z"
    />
    <path
        d="m 70.601333,9.7323634 q -1.098369,0 -1.890863,-0.4449088 Q 67.93188,8.8425458 67.514778,7.980535 67.111579,7.1185242 67.111579,5.8811215 q 0,-1.251306 0.403199,-2.0994134 0.417102,-0.8620109 1.195692,-1.3069197 0.792494,-0.4449088 1.890863,-0.4449088 1.084465,0 1.835249,0.417102 0.750783,0.4031986 1.140078,1.1956924 0.403199,0.7924939 0.403199,1.9603795 V 6.2148031 H 68.251658 V 5.0747243 h 5.102548 L 72.228031,5.7837977 V 5.3527923 q 0,-1.0288516 -0.389296,-1.5015672 Q 71.44944,3.364606 70.601333,3.364606 q -0.834204,0 -1.237403,0.4866191 -0.389295,0.4727156 -0.389295,1.5015672 v 1.0149482 q 0,1.0288517 0.389295,1.5015673 0.403199,0.4727156 1.237403,0.4727156 0.556136,0 0.862011,-0.1668408 Q 71.783122,8.0083418 71.922156,7.771984 72.06119,7.5356262 72.06119,7.3409786 V 7.2297514 h 1.807442 Q 73.618371,8.4532506 72.784167,9.092807 71.949963,9.7323634 70.601333,9.7323634 Z"
    />
  </g>
</svg>