<svg viewBox="0 0 24 24" fill="none" xmlns="http://www.w3.org/2000/svg">
  <!-- 项目全部状态图标：基于project.svg，右下角添加列表标识 -->
  <g>
    <path
        d="M4.97883 9.68508C2.99294 8.89073 2 8.49355 2 8C2 7.50645 2.99294 7.10927 4.97883 6.31492L7.7873 5.19153C9.77318 4.39718 10.7661 4 12 4C13.2339 4 14.2268 4.39718 16.2127 5.19153L19.0212 6.31492C21.0071 7.10927 22 7.50645 22 8C22 8.49355 21.0071 8.89073 19.0212 9.68508L16.2127 10.8085C14.2268 11.6028 13.2339 12 12 12C10.7661 12 9.77318 11.6028 7.7873 10.8085L4.97883 9.68508Z"
        stroke="#123F68" stroke-width="1.5"/>
    <path
        d="M22 12C22 12 21.0071 12.8907 19.0212 13.6851L16.2127 14.8085C14.2268 15.6028 13.2339 16 12 16C10.7661 16 9.77318 15.6028 7.7873 14.8085L4.97883 13.6851C2.99294 12.8907 2 12 2 12"
        stroke="#123F68" stroke-width="1.5" stroke-linecap="round"/>
    <path
        d="M22 16C22 16 21.0071 16.8907 19.0212 17.6851L16.2127 18.8085C14.2268 19.6028 13.2339 20 12 20C10.7661 20 9.77318 19.6028 7.7873 18.8085L4.97883 17.6851C2.99294 16.8907 2 16 2 16"
        stroke="#123F68" stroke-width="1.5" stroke-linecap="round"/>
    <!-- 右下角列表标识，占据四分之一面积 -->
    <circle cx="18" cy="18" r="5.5" fill="#123F68"/>
    <!-- 列表样式：三条横线 -->
    <line x1="15.5" y1="16" x2="20.5" y2="16" stroke="#fff" stroke-width="1.2" stroke-linecap="round"/>
    <line x1="15.5" y1="18" x2="20.5" y2="18" stroke="#fff" stroke-width="1.2" stroke-linecap="round"/>
    <line x1="15.5" y1="20" x2="20.5" y2="20" stroke="#fff" stroke-width="1.2" stroke-linecap="round"/>
  </g>
</svg>

