<svg viewBox="0 0 24 24" fill="none" xmlns="http://www.w3.org/2000/svg">
  <defs>
    <clipPath id="project-settings-clip">
      <path fill-rule="evenodd" clip-rule="evenodd"
            d="M0 0H24V24H0V0ZM18 16m-6 0a6 6 0 1 0 12 0a6 6 0 1 0-12 0Z"/>
    </clipPath>
  </defs>
  <g>
    <g clip-path="url(#project-settings-clip)">
      <path
          d="M4.97883 9.68508C2.99294 8.89073 2 8.49355 2 8C2 7.50645 2.99294 7.10927 4.97883 6.31492L7.7873 5.19153C9.77318 4.39718 10.7661 4 12 4C13.2339 4 14.2268 4.39718 16.2127 5.19153L19.0212 6.31492C21.0071 7.10927 22 7.50645 22 8C22 8.49355 21.0071 8.89073 19.0212 9.68508L16.2127 10.8085C14.2268 11.6028 13.2339 12 12 12C10.7661 12 9.77318 11.6028 7.7873 10.8085L4.97883 9.68508Z"
          stroke="#123F68" stroke-width="1.5"/>
      <path
          d="M22 12C22 12 21.0071 12.8907 19.0212 13.6851L16.2127 14.8085C14.2268 15.6028 13.2339 16 12 16C10.7661 16 9.77318 15.6028 7.7873 14.8085L4.97883 13.6851C2.99294 12.8907 2 12 2 12"
          stroke="#123F68" stroke-width="1.5" stroke-linecap="round"/>
      <path
          d="M22 16C22 16 21.0071 16.8907 19.0212 17.6851L16.2127 18.8085C14.2268 19.6028 13.2339 20 12 20C10.7661 20 9.77318 19.6028 7.7873 18.8085L4.97883 17.6851C2.99294 16.8907 2 16 2 16"
          stroke="#123F68" stroke-width="1.5" stroke-linecap="round"/>
    </g>
    <g class="air-icon-fixed-stroke" transform="translate(18, 16) scale(0.5) translate(-12, -12)">
      <path
          d="M12 15C13.6569 15 15 13.6569 15 12C15 10.3431 13.6569 9 12 9C10.3431 9 9 10.3431 9 12C9 13.6569 10.3431 15 12 15Z"
          stroke="#123F68" stroke-width="3" stroke-miterlimit="10" stroke-linecap="round"
          stroke-linejoin="round"/>
      <path
          d="M2 12.8799V11.1199C2 10.0799 2.85 9.21994 3.9 9.21994C5.71 9.21994 6.45 7.93994 5.54 6.36994C5.02 5.46994 5.33 4.29994 6.24 3.77994L7.97 2.78994C8.76 2.31994 9.78 2.59994 10.25 3.38994L10.36 3.57994C11.26 5.14994 12.74 5.14994 13.65 3.57994L13.76 3.38994C14.23 2.59994 15.25 2.31994 16.04 2.78994L17.77 3.77994C18.68 4.29994 18.99 5.46994 18.47 6.36994C17.56 7.93994 18.3 9.21994 20.11 9.21994C21.15 9.21994 22.01 10.0699 22.01 11.1199V12.8799C22.01 13.9199 21.16 14.7799 20.11 14.7799C18.3 14.7799 17.56 16.0599 18.47 17.6299C18.99 18.5399 18.68 19.6999 17.77 20.2199L16.04 21.2099C15.25 21.6799 14.23 21.3999 13.76 20.6099L13.65 20.4199C12.75 18.8499 11.27 18.8499 10.36 20.4199L10.25 20.6099C9.78 21.3999 8.76 21.6799 7.97 21.2099L6.24 20.2199C5.33 19.6999 5.02 18.5299 5.54 17.6299C6.45 16.0599 5.71 14.7799 3.9 14.7799C2.85 14.7799 2 13.9199 2 12.8799Z"
          stroke="#123F68" stroke-width="3" stroke-miterlimit="10" stroke-linecap="round"
          stroke-linejoin="round"/>
    </g>
  </g>
</svg>